<svg width="1280" height="320" viewBox="0 0 1280 320" fill="none" xmlns="http://www.w3.org/2000/svg">
  <defs>
    <linearGradient id="bg" x1="0" y1="0" x2="1280" y2="320" gradientUnits="userSpaceOnUse">
      <stop stop-color="#07111F"/>
      <stop offset="0.52" stop-color="#0F2A4F"/>
      <stop offset="1" stop-color="#0A8BA8"/>
    </linearGradient>
    <linearGradient id="glow" x1="0" y1="0" x2="1" y2="1">
      <stop stop-color="#38BDF8" stop-opacity="0.9"/>
      <stop offset="1" stop-color="#22C55E" stop-opacity="0.15"/>
    </linearGradient>
    <filter id="blur" x="-40%" y="-40%" width="180%" height="180%">
      <feGaussianBlur stdDeviation="32"/>
    </filter>
  </defs>

  <rect width="1280" height="320" rx="28" fill="url(#bg)"/>
  <circle cx="1080" cy="74" r="118" fill="url(#glow)" filter="url(#blur)"/>
  <circle cx="1040" cy="248" r="96" fill="#2563EB" opacity="0.18" filter="url(#blur)"/>
  <circle cx="220" cy="36" r="90" fill="#14B8A6" opacity="0.10" filter="url(#blur)"/>

  <rect x="56" y="52" width="216" height="216" rx="30" fill="#081425" stroke="#60A5FA" stroke-opacity="0.45"/>
  <path d="M110 205L168 110H201L143 205H110Z" fill="#60A5FA"/>
  <path d="M172 205L230 110H252L194 205H172Z" fill="#22C55E"/>
  <rect x="96" y="92" width="136" height="12" rx="6" fill="#E2E8F0" opacity="0.85"/>
  <rect x="96" y="220" width="110" height="10" rx="5" fill="#E2E8F0" opacity="0.38"/>

  <rect x="320" y="66" width="166" height="32" rx="16" fill="#0B1D34" stroke="#60A5FA" stroke-opacity="0.35"/>
  <text x="343" y="87" fill="#93C5FD" font-family="Segoe UI, Arial, sans-serif" font-size="15" font-weight="700">BACKEND DEVELOPER</text>

  <text x="320" y="150" fill="#F8FAFC" font-family="Segoe UI, Arial, sans-serif" font-size="46" font-weight="800">Fabian Galan</text>
  <text x="320" y="188" fill="#C7D2FE" font-family="Segoe UI, Arial, sans-serif" font-size="21" font-weight="600">Business systems, secure APIs, clean architecture</text>
  <text x="320" y="220" fill="#BFDBFE" font-family="Segoe UI, Arial, sans-serif" font-size="18">Backend-first mindset with product and process focus</text>

  <rect x="320" y="244" width="146" height="34" rx="17" fill="#0C1F37"/>
  <rect x="478" y="244" width="166" height="34" rx="17" fill="#0C1F37"/>
  <rect x="656" y="244" width="176" height="34" rx="17" fill="#0C1F37"/>
  <text x="350" y="266" fill="#E2E8F0" font-family="Segoe UI, Arial, sans-serif" font-size="15" font-weight="700">Node.js</text>
  <text x="524" y="266" fill="#E2E8F0" font-family="Segoe UI, Arial, sans-serif" font-size="15" font-weight="700">.NET / C#</text>
  <text x="702" y="266" fill="#E2E8F0" font-family="Segoe UI, Arial, sans-serif" font-size="15" font-weight="700">FastAPI / SQL</text>

  <path d="M970 82H1182" stroke="#38BDF8" stroke-opacity="0.45" stroke-width="2"/>
  <path d="M1020 112H1182" stroke="#22C55E" stroke-opacity="0.35" stroke-width="2"/>
  <path d="M945 142H1182" stroke="#FFFFFF" stroke-opacity="0.18" stroke-width="2"/>
  <path d="M995 172H1182" stroke="#FFFFFF" stroke-opacity="0.12" stroke-width="2"/>
</svg>
